<?xml version="1.0"?><svg xmlns="http://www.w3.org/2000/svg" id="Layer_1" data-name="Layer 1" viewBox="0 0 24 24"><defs><style>
      .cls-1 {
        fill: #fff;
      }
    </style></defs><path d="M17.81,0H6.19C2.77,0,0,2.77,0,6.19v11.61c0,3.42,2.77,6.19,6.19,6.19h11.61c3.42,0,6.19-2.77,6.19-6.19V6.19c0-3.42-2.77-6.19-6.19-6.19ZM15.61,20.91l-4.86-6.92-6.09,6.92h-1.57l6.96-7.91L3.08,3.09h5.31l4.6,6.55,5.76-6.55h1.57l-6.64,7.55h0l7.22,10.28h-5.31Z"/><polygon points="12.17 10.58 7.64 4.25 5.22 4.25 10.84 12.1 11.54 13.08 11.54 13.09 16.35 19.81 18.76 19.81 12.87 11.57 12.17 10.58"/><path class="cls-1" d="M13.7,10.64l6.64-7.55h-1.57l-5.76,6.55-4.6-6.55H3.08l6.96,9.91-6.96,7.91h1.57l6.09-6.92,4.86,6.92h5.31l-7.22-10.28h0ZM18.76,19.81h-2.42l-4.8-6.72h0s-.71-.99-.71-.99l-5.61-7.85h2.42l4.53,6.34.71.99,5.89,8.24Z"/></svg>